<?xml version="1.0" encoding="utf-8"?>
<!-- Generator: Adobe Illustrator 23.0.5, SVG Export Plug-In . SVG Version: 6.00 Build 0)  -->
<svg version="1.1" xmlns="http://www.w3.org/2000/svg" xmlns:xlink="http://www.w3.org/1999/xlink" x="0px" y="0px"
	 viewBox="0 0 4000 1250" style="enable-background:new 0 0 4000 1250;" xml:space="preserve">
<style type="text/css">
	.st0{fill:#345A6F;}
	.st1{fill:#2D4A57;}
	.st2{fill:#2C4855;}
	.st3{fill:#126EA9;}
	.st4{font-family:'TwCenMT-Regular';}
	.st5{font-size:170px;}
	.st6{letter-spacing:-5;}
	.st7{letter-spacing:-12;}
	.st8{letter-spacing:-8;}
	.st9{letter-spacing:-9;}
	.st10{letter-spacing:-7;}
	.st11{letter-spacing:-14;}
	.st12{letter-spacing:-11;}
	.st13{font-size:66px;}
	.st14{letter-spacing:-2;}
	.st15{fill:#09618A;}
</style>
<g id="Capa_1">
</g>
<g id="Capa_3">
	<polygon class="st0" points="2219.5,-31.84 2705.71,477.75 3126.47,561.9 3467.75,786.31 4318.62,663.2 4342,-499.35 	"/>
	<polygon class="st1" points="2705.71,477.75 4342,-499.35 3126.47,561.9 	"/>
	<polygon class="st2" points="3467.75,786.31 4342,-499.35 4318.62,663.2 	"/>
</g>
<g id="Capa_2">
	<text transform="matrix(1 0 0 1 1516.75 529.5)"><tspan x="0" y="0" class="st3 st4 st5 st6">C</tspan><tspan x="97.07" y="0" class="st3 st4 st5 st7">h</tspan><tspan x="159.29" y="0" class="st3 st4 st5 st8">r</tspan><tspan x="207.74" y="0" class="st3 st4 st5 st9">i</tspan><tspan x="235.66" y="0" class="st3 st4 st5 st6">s</tspan><tspan x="286.66" y="0" class="st3 st4 st5 st10">t</tspan><tspan x="325.42" y="0" class="st3 st4 st5 st7">i</tspan><tspan x="350.62" y="0" class="st3 st4 st5 st9">a</tspan><tspan x="435.41" y="0" class="st3 st4 st5 st6">n </tspan><tspan x="545.55" y="0" class="st3 st4 st5 st8">G</tspan><tspan x="668.46" y="0" class="st3 st4 st5 st11">a</tspan><tspan x="747.3" y="0" class="st3 st4 st5 st9">r</tspan><tspan x="794.22" y="0" class="st3 st4 st5 st6">c</tspan><tspan x="854.02" y="0" class="st3 st4 st5 st12">í</tspan><tspan x="879.56" y="0" class="st3 st4 st5 st6">a</tspan></text>
	<text transform="matrix(1 0 0 1 1465.75 611.25)" class="st0 st4 st13 st14">programación · diseño gráfico · videojuegos</text>
	<polygon class="st3" points="2247.79,-96.43 2702.03,273.86 3151.2,354.43 3419.95,667.23 4370.5,625.47 4306.79,-671.18 	"/>
</g>
<g id="Capa_4">
	<polyline class="st15" points="2702.03,273.86 4306.79,-671.18 3151.2,354.43 2702.03,273.86 	"/>
	<polygon class="st15" points="3419.95,667.23 4306.79,-671.18 4370.5,625.47 	"/>
</g>
</svg>
